PathFileType	4	(X/Y/Z)	stereocamera_static.trc
DataRate	CameraRate	NumFrames	NumMarkers	Units	OrigDataRate	OrigDataStartFrame	OrigNumFrames
28.086763070077865	28.086763070077865	12	15	mm	28.086763070077865	51	203
Frame#	Time	JOINT_NECK			JOINT_RIGHT_CLAVICLE			JOINT_LEFT_CLAVICLE			JOINT_RIGHT_SHOULDER			JOINT_LEFT_SHOULDER			JOINT_RIGHT_ELBOW			JOINT_LEFT_ELBOW			JOINT_LEFT_WRIST			JOINT_RIGHT_WRIST			JOINT_SPINE_3			JOINT_SPINE_2			JOINT_SPINE_1			JOINT_PELVIS			JOINT_RIGHT_HIP			JOINT_LEFT_HIP
		X1	Y1	Z1	X2	Y2	Z2	X3	Y3	Z3	X4	Y4	Z4	X5	Y5	Z5	X6	Y6	Z6	X7	Y7	Z7	X8	Y8	Z8	X9	Y9	Z9	X10	Y10	Z10	X11	Y11	Z11	X12	Y12	Z12	X13	Y13	Z13	X14	Y14	Z14	X15	Y15	Z15

51	1749651035.690000	166.015460	6.220639	890.228150	98.801695	0.795409	956.419200	236.332640	10.267809	893.782400	23.846878	-3.292501	997.903000	301.913500	15.607402	870.331100	-31.075062	-262.690780	1033.650800	352.264880	-217.798380	818.786100	nan	nan	nan	-67.774616	-400.327180	1006.780100	158.378140	-84.721570	851.064860	154.717890	-166.646700	833.171670	150.085720	-246.363770	808.603100	146.159870	-323.205650	788.833260	63.715340	-338.228200	824.413400	237.940600	-321.953650	794.776740
52	1749651035.757000	167.149190	5.870059	899.958500	97.428140	0.751436	956.841900	236.272810	10.164470	893.528400	23.191620	-3.337622	996.596630	301.620780	15.792847	869.938800	-30.494610	-261.174050	1037.661200	351.874020	-217.465790	819.220000	nan	nan	nan	-63.548500	-396.366240	1000.085800	158.352090	-84.403870	851.106300	154.362230	-164.749180	828.083200	150.562260	-245.329990	809.273500	146.784950	-321.859840	788.480200	nan	nan	nan	nan	nan	nan
53	1749651035.857000	162.973720	7.207364	879.862900	97.342886	0.808746	956.903760	236.211060	10.140151	893.335760	22.897340	-2.450526	992.521200	301.708340	16.711101	870.496600	-30.630736	-262.042200	1032.850600	351.987780	-217.858610	819.240300	nan	nan	nan	-63.583000	-404.770260	1019.027700	158.592200	-80.419846	852.498600	153.425960	-163.325860	823.183600	150.659860	-245.180010	809.163100	146.851500	-321.544170	788.276200	58.014996	-334.016380	813.028340	237.470870	-322.263100	794.717400
54	1749651035.891000	166.312100	6.348729	897.347500	97.575106	0.821143	956.872700	236.178140	10.140091	893.255830	22.582180	-4.017889	986.026200	301.648140	15.808910	869.994400	-30.844110	-262.346480	1035.474800	352.622180	-219.049420	818.752500	nan	nan	nan	-66.090055	-399.531130	1001.124000	158.510670	-82.301330	851.892350	153.034360	-165.809150	821.918850	150.599500	-245.329020	809.018600	146.756590	-321.695700	788.239700	nan	nan	nan	nan	nan	nan
55	1749651035.925000	163.150890	6.744579	881.515700	97.696360	0.830427	956.820500	236.604990	12.861222	895.050350	22.286126	-3.965437	987.678800	301.616760	16.612336	870.421650	-31.004524	-263.315700	1036.696400	352.092530	-218.271030	818.978300	nan	nan	nan	-65.611444	-398.267450	996.477370	158.628780	-80.791710	852.534230	152.929680	-164.620280	821.946800	150.564540	-245.409060	808.981500	146.696050	-321.772100	788.222400	61.643567	-336.893980	820.121100	238.114280	-322.260230	794.991970
56	1749651035.958000	160.447870	7.353991	872.545000	97.963350	3.618330	959.273600	236.865830	14.452919	896.131750	21.035518	-2.815679	993.793850	301.135540	16.896784	870.948100	-31.705238	-264.025700	1036.047000	352.161560	-218.132170	819.071230	nan	nan	nan	-67.311480	-396.684770	996.057870	158.669280	-79.915464	852.756860	152.924100	-163.852750	822.255970	150.558160	-245.433720	809.008540	146.676660	-321.782950	788.197600	63.358750	-337.717920	823.262160	238.371520	-321.902800	794.769000
57	1749651035.991000	159.942140	6.771624	867.998400	97.939490	2.622291	958.354060	236.680240	12.727097	895.074370	21.406928	-3.405601	991.167900	301.622630	16.359419	870.343200	-32.035550	-265.100960	1035.356400	351.480800	-217.922340	819.267870	nan	nan	nan	-68.643406	-397.029500	996.073370	158.569280	-81.810510	852.024200	152.959150	-163.415180	822.591300	150.540600	-245.458300	809.042700	146.643420	-321.807030	788.207700	64.479360	-337.551950	821.818350	238.133860	-322.045200	795.514940
58	1749651036.025000	163.502870	6.164074	886.718750	100.617150	1.829624	956.792700	236.516830	11.459798	894.319360	23.096638	-2.909884	990.487640	301.974300	16.037226	870.071530	-32.021012	-265.212540	1034.082400	351.146850	-217.818290	819.393160	nan	nan	nan	-70.086600	-402.948770	1011.933200	158.578950	-80.816220	852.124800	152.993200	-163.175930	822.740100	152.740880	-245.188100	807.972500	148.959340	-321.819870	788.188340	nan	nan	nan	nan	nan	nan
59	1749651036.058000	162.543650	6.540895	878.468400	99.612206	1.163542	956.465000	236.415060	10.504350	893.844660	23.503415	-2.600804	978.872100	301.852020	16.126410	870.136600	-32.705600	-266.174140	1033.352100	351.129800	-218.775240	819.087450	nan	nan	nan	-71.564436	-405.844780	1017.691900	158.609320	-80.257520	852.307440	153.038140	-163.193100	822.876600	151.965810	-245.379200	808.409330	148.142830	-321.920700	788.185660	64.773490	-338.133400	824.092700	237.335340	-322.533850	796.738300
60	1749651036.092000	161.742550	6.420001	873.713800	98.764144	0.941619	956.401200	236.323090	10.149032	893.621740	23.455903	-3.203884	984.085800	301.572140	16.100585	869.657340	-32.989345	-266.674640	1033.823000	351.465140	-218.779800	818.992500	nan	nan	nan	-72.583240	-404.944660	1009.211300	158.506600	-81.991030	851.731100	153.095160	-163.095970	823.079400	151.350930	-245.341090	808.800200	147.511750	-321.816180	788.256050	64.880125	-337.488600	821.592450	237.043000	-322.277840	797.308500
61	1749651036.125000	160.663110	7.087469	871.542700	98.399736	3.273979	958.952370	236.652480	12.274951	895.157700	21.871679	-2.572522	991.682700	301.552620	16.612738	869.637370	-33.348020	-267.645120	1034.607000	351.454020	-220.307710	818.841600	nan	nan	nan	-72.895170	-402.234020	1005.215300	158.543680	-81.083180	852.009800	153.126140	-163.195400	823.113500	150.911320	-245.467360	809.084400	147.027580	-321.846960	788.184340	65.357420	-337.506350	822.552440	237.271060	-322.646860	797.486100
62	1749651036.159000	160.589720	6.567314	869.417970	97.986050	2.345517	958.275200	236.566380	11.400789	894.704100	22.290440	-3.540024	990.639600	301.755550	16.286180	869.830970	-33.595383	-267.688400	1033.916100	351.465730	-221.592340	818.768260	nan	nan	nan	-73.634730	-402.862070	1005.726300	158.455150	-82.589924	851.452700	153.137500	-163.227630	823.070400	152.772020	-245.211000	808.096200	148.997490	-321.858940	788.247350	65.935010	-337.351860	823.449500	238.984420	-323.188780	797.662730
